<svg xmlns="http://www.w3.org/2000/svg" viewBox="0 0 1000 430" role="img" aria-labelledby="title desc">
  <title id="title">Mean survival time and standard deviation by hero</title>
  <desc id="desc">Orange circles show means, cyan bars show plus or minus one standard deviation, and white diamonds show medians.</desc>
  <style>
    text { font-family: ui-monospace, SFMono-Regular, Menlo, monospace; fill: #dce8ff; }
    .title { font-size: 24px; font-weight: 700; }
    .subtitle, .tick { font-size: 13px; fill: #91a4c8; }
    .hero { font-size: 17px; font-weight: 700; }
    .value { font-size: 13px; fill: #bdefff; }
  </style>
  <rect width="100%" height="100%" rx="18" fill="#081120"/>
  <text x="190" y="34" class="title">Survival time distribution</text>
  <text x="190" y="54" class="subtitle">mean ± 1 SD (cyan) · median (white) · competent policy</text>
  <line x1="190" y1="60" x2="190" y2="375" stroke="#263552" stroke-width="1"/>
<text x="190" y="402" text-anchor="middle" class="tick">0m</text>
<line x1="341" y1="60" x2="341" y2="375" stroke="#263552" stroke-width="1"/>
<text x="341" y="402" text-anchor="middle" class="tick">5m</text>
<line x1="492" y1="60" x2="492" y2="375" stroke="#263552" stroke-width="1"/>
<text x="492" y="402" text-anchor="middle" class="tick">10m</text>
<line x1="643" y1="60" x2="643" y2="375" stroke="#263552" stroke-width="1"/>
<text x="643" y="402" text-anchor="middle" class="tick">15m</text>
<line x1="794" y1="60" x2="794" y2="375" stroke="#263552" stroke-width="1"/>
<text x="794" y="402" text-anchor="middle" class="tick">20m</text>
<line x1="945" y1="60" x2="945" y2="375" stroke="#263552" stroke-width="1"/>
<text x="945" y="402" text-anchor="middle" class="tick">25m</text>
  <g>
      <text x="172" y="100" text-anchor="end" class="hero">Boswell</text>
      <line x1="381.01343628384626" y1="94" x2="722.9840266787832" y2="94" stroke="#72d8ff" stroke-width="10" stroke-linecap="round" opacity="0.55"/>
      <line x1="381.01343628384626" y1="83" x2="381.01343628384626" y2="105" stroke="#bdefff" stroke-width="2"/>
      <line x1="722.9840266787832" y1="83" x2="722.9840266787832" y2="105" stroke="#bdefff" stroke-width="2"/>
      <circle cx="551.9987314813147" cy="94" r="8" fill="#ffb34d" stroke="#fff0c7" stroke-width="2"/>
      <path d="M 528.2106388887466 82 L 535.2106388887466 94 L 528.2106388887466 106 L 521.2106388887466 94 Z" fill="#f7fbff"/>
      <text x="736.9840266787832" y="99" class="value">11:59 ± 5:40</text>
    </g>
<g>
      <text x="172" y="172" text-anchor="end" class="hero">Fitzwilliam</text>
      <line x1="367.15488645480707" y1="166" x2="678.4034792856544" y2="166" stroke="#72d8ff" stroke-width="10" stroke-linecap="round" opacity="0.55"/>
      <line x1="367.15488645480707" y1="155" x2="367.15488645480707" y2="177" stroke="#bdefff" stroke-width="2"/>
      <line x1="678.4034792856544" y1="155" x2="678.4034792856544" y2="177" stroke="#bdefff" stroke-width="2"/>
      <circle cx="522.7791828702307" cy="166" r="8" fill="#ffb34d" stroke="#fff0c7" stroke-width="2"/>
      <path d="M 512.4814722220943 154 L 519.4814722220943 166 L 512.4814722220943 178 L 505.48147222209434 166 Z" fill="#f7fbff"/>
      <text x="692.4034792856544" y="171" class="value">11:01 ± 5:09</text>
    </g>
<g>
      <text x="172" y="244" text-anchor="end" class="hero">Fortunato</text>
      <line x1="424.3172433700154" y1="238" x2="769.8216269999457" y2="238" stroke="#72d8ff" stroke-width="10" stroke-linecap="round" opacity="0.55"/>
      <line x1="424.3172433700154" y1="227" x2="424.3172433700154" y2="249" stroke="#bdefff" stroke-width="2"/>
      <line x1="769.8216269999457" y1="227" x2="769.8216269999457" y2="249" stroke="#bdefff" stroke-width="2"/>
      <circle cx="597.0694351849804" cy="238" r="8" fill="#ffb34d" stroke="#fff0c7" stroke-width="2"/>
      <path d="M 577.1556111109244 226 L 584.1556111109244 238 L 577.1556111109244 250 L 570.1556111109244 238 Z" fill="#f7fbff"/>
      <text x="783.8216269999457" y="243" class="value">13:29 ± 5:43</text>
    </g>
<g>
      <text x="172" y="316" text-anchor="end" class="hero">Rutherford</text>
      <line x1="337.57858468862713" y1="310" x2="646.5598319778123" y2="310" stroke="#72d8ff" stroke-width="10" stroke-linecap="round" opacity="0.55"/>
      <line x1="337.57858468862713" y1="299" x2="337.57858468862713" y2="321" stroke="#bdefff" stroke-width="2"/>
      <line x1="646.5598319778123" y1="299" x2="646.5598319778123" y2="321" stroke="#bdefff" stroke-width="2"/>
      <circle cx="492.0692083332197" cy="310" r="8" fill="#ffb34d" stroke="#fff0c7" stroke-width="2"/>
      <path d="M 475.71716666657227 298 L 482.71716666657227 310 L 475.71716666657227 322 L 468.71716666657227 310 Z" fill="#f7fbff"/>
      <text x="660.5598319778123" y="315" class="value">10:00 ± 5:07</text>
    </g>
</svg>
