<svg xmlns="http://www.w3.org/2000/svg" viewBox="0 0 1000 430" role="img" aria-labelledby="title desc">
  <title id="title">Mean survival time and standard deviation by hero</title>
  <desc id="desc">Orange circles show means, cyan bars show plus or minus one standard deviation, and white diamonds show medians.</desc>
  <style>
    text { font-family: ui-monospace, SFMono-Regular, Menlo, monospace; fill: #dce8ff; }
    .title { font-size: 24px; font-weight: 700; }
    .subtitle, .tick { font-size: 13px; fill: #91a4c8; }
    .hero { font-size: 17px; font-weight: 700; }
    .value { font-size: 13px; fill: #bdefff; }
  </style>
  <rect width="100%" height="100%" rx="18" fill="#081120"/>
  <text x="190" y="34" class="title">Survival time distribution</text>
  <text x="190" y="54" class="subtitle">mean ± 1 SD (cyan) · median (white) · competent policy</text>
  <line x1="190" y1="60" x2="190" y2="375" stroke="#263552" stroke-width="1"/>
<text x="190" y="402" text-anchor="middle" class="tick">0m</text>
<line x1="341" y1="60" x2="341" y2="375" stroke="#263552" stroke-width="1"/>
<text x="341" y="402" text-anchor="middle" class="tick">5m</text>
<line x1="492" y1="60" x2="492" y2="375" stroke="#263552" stroke-width="1"/>
<text x="492" y="402" text-anchor="middle" class="tick">10m</text>
<line x1="643" y1="60" x2="643" y2="375" stroke="#263552" stroke-width="1"/>
<text x="643" y="402" text-anchor="middle" class="tick">15m</text>
<line x1="794" y1="60" x2="794" y2="375" stroke="#263552" stroke-width="1"/>
<text x="794" y="402" text-anchor="middle" class="tick">20m</text>
<line x1="945" y1="60" x2="945" y2="375" stroke="#263552" stroke-width="1"/>
<text x="945" y="402" text-anchor="middle" class="tick">25m</text>
  <g>
      <text x="172" y="100" text-anchor="end" class="hero">Boswell</text>
      <line x1="498.2316445879125" y1="94" x2="859.5332026337514" y2="94" stroke="#72d8ff" stroke-width="10" stroke-linecap="round" opacity="0.55"/>
      <line x1="498.2316445879125" y1="83" x2="498.2316445879125" y2="105" stroke="#bdefff" stroke-width="2"/>
      <line x1="859.5332026337514" y1="83" x2="859.5332026337514" y2="105" stroke="#bdefff" stroke-width="2"/>
      <circle cx="678.882423610832" cy="94" r="8" fill="#ffb34d" stroke="#fff0c7" stroke-width="2"/>
      <path d="M 761.4553055552012 82 L 768.4553055552012 94 L 761.4553055552012 106 L 754.4553055552012 94 Z" fill="#f7fbff"/>
      <text x="873.5332026337514" y="99" class="value">16:11 ± 5:59</text>
    </g>
<g>
      <text x="172" y="172" text-anchor="end" class="hero">Fitzwilliam</text>
      <line x1="280.3182653803835" y1="166" x2="730.0668873971172" y2="166" stroke="#72d8ff" stroke-width="10" stroke-linecap="round" opacity="0.55"/>
      <line x1="280.3182653803835" y1="155" x2="280.3182653803835" y2="177" stroke="#bdefff" stroke-width="2"/>
      <line x1="730.0668873971172" y1="155" x2="730.0668873971172" y2="177" stroke="#bdefff" stroke-width="2"/>
      <circle cx="505.19257638875035" cy="166" r="8" fill="#ffb34d" stroke="#fff0c7" stroke-width="2"/>
      <path d="M 422.81263888884257 154 L 429.81263888884257 166 L 422.81263888884257 178 L 415.81263888884257 166 Z" fill="#f7fbff"/>
      <text x="744.0668873971172" y="171" class="value">10:26 ± 7:27</text>
    </g>
<g>
      <text x="172" y="244" text-anchor="end" class="hero">Fortunato</text>
      <line x1="458.6173194259684" y1="238" x2="852.717824092034" y2="238" stroke="#72d8ff" stroke-width="10" stroke-linecap="round" opacity="0.55"/>
      <line x1="458.6173194259684" y1="227" x2="458.6173194259684" y2="249" stroke="#bdefff" stroke-width="2"/>
      <line x1="852.717824092034" y1="227" x2="852.717824092034" y2="249" stroke="#bdefff" stroke-width="2"/>
      <circle cx="655.6675717590012" cy="238" r="8" fill="#ffb34d" stroke="#fff0c7" stroke-width="2"/>
      <path d="M 678.2668888886103 226 L 685.2668888886103 238 L 678.2668888886103 250 L 671.2668888886103 238 Z" fill="#f7fbff"/>
      <text x="866.717824092034" y="243" class="value">15:25 ± 6:31</text>
    </g>
<g>
      <text x="172" y="316" text-anchor="end" class="hero">Rutherford</text>
      <line x1="373.09870541472446" y1="310" x2="721.5402529182861" y2="310" stroke="#72d8ff" stroke-width="10" stroke-linecap="round" opacity="0.55"/>
      <line x1="373.09870541472446" y1="299" x2="373.09870541472446" y2="321" stroke="#bdefff" stroke-width="2"/>
      <line x1="721.5402529182861" y1="299" x2="721.5402529182861" y2="321" stroke="#bdefff" stroke-width="2"/>
      <circle cx="547.3194791665053" cy="310" r="8" fill="#ffb34d" stroke="#fff0c7" stroke-width="2"/>
      <path d="M 519.2261388887549 298 L 526.2261388887549 310 L 519.2261388887549 322 L 512.2261388887549 310 Z" fill="#f7fbff"/>
      <text x="735.5402529182861" y="315" class="value">11:50 ± 5:46</text>
    </g>
</svg>
