<svg xmlns="http://www.w3.org/2000/svg" viewBox="0 0 1000 430" role="img" aria-labelledby="title desc">
  <title id="title">Mean survival time and standard deviation by hero</title>
  <desc id="desc">Orange circles show means, cyan bars show plus or minus one standard deviation, and white diamonds show medians.</desc>
  <style>
    text { font-family: ui-monospace, SFMono-Regular, Menlo, monospace; fill: #dce8ff; }
    .title { font-size: 24px; font-weight: 700; }
    .subtitle, .tick { font-size: 13px; fill: #91a4c8; }
    .hero { font-size: 17px; font-weight: 700; }
    .value { font-size: 13px; fill: #bdefff; }
  </style>
  <rect width="100%" height="100%" rx="18" fill="#081120"/>
  <text x="190" y="34" class="title">Survival time distribution</text>
  <text x="190" y="54" class="subtitle">mean ± 1 SD (cyan) · median (white) · competent policy</text>
  <line x1="190" y1="60" x2="190" y2="375" stroke="#263552" stroke-width="1"/>
<text x="190" y="402" text-anchor="middle" class="tick">0m</text>
<line x1="341" y1="60" x2="341" y2="375" stroke="#263552" stroke-width="1"/>
<text x="341" y="402" text-anchor="middle" class="tick">5m</text>
<line x1="492" y1="60" x2="492" y2="375" stroke="#263552" stroke-width="1"/>
<text x="492" y="402" text-anchor="middle" class="tick">10m</text>
<line x1="643" y1="60" x2="643" y2="375" stroke="#263552" stroke-width="1"/>
<text x="643" y="402" text-anchor="middle" class="tick">15m</text>
<line x1="794" y1="60" x2="794" y2="375" stroke="#263552" stroke-width="1"/>
<text x="794" y="402" text-anchor="middle" class="tick">20m</text>
<line x1="945" y1="60" x2="945" y2="375" stroke="#263552" stroke-width="1"/>
<text x="945" y="402" text-anchor="middle" class="tick">25m</text>
  <g>
      <text x="172" y="100" text-anchor="end" class="hero">Boswell</text>
      <line x1="478.0380757258543" y1="94" x2="791.7580863107007" y2="94" stroke="#72d8ff" stroke-width="10" stroke-linecap="round" opacity="0.55"/>
      <line x1="478.0380757258543" y1="83" x2="478.0380757258543" y2="105" stroke="#bdefff" stroke-width="2"/>
      <line x1="791.7580863107007" y1="83" x2="791.7580863107007" y2="105" stroke="#bdefff" stroke-width="2"/>
      <circle cx="634.8980810182775" cy="94" r="8" fill="#ffb34d" stroke="#fff0c7" stroke-width="2"/>
      <path d="M 647.4293333330827 82 L 654.4293333330827 94 L 647.4293333330827 106 L 640.4293333330827 94 Z" fill="#f7fbff"/>
      <text x="805.7580863107007" y="99" class="value">14:44 ± 5:12</text>
    </g>
<g>
      <text x="172" y="172" text-anchor="end" class="hero">Fitzwilliam</text>
      <line x1="305.52343929061647" y1="166" x2="758.6498708942411" y2="166" stroke="#72d8ff" stroke-width="10" stroke-linecap="round" opacity="0.55"/>
      <line x1="305.52343929061647" y1="155" x2="305.52343929061647" y2="177" stroke="#bdefff" stroke-width="2"/>
      <line x1="758.6498708942411" y1="155" x2="758.6498708942411" y2="177" stroke="#bdefff" stroke-width="2"/>
      <circle cx="532.0866550924287" cy="166" r="8" fill="#ffb34d" stroke="#fff0c7" stroke-width="2"/>
      <path d="M 516.2690555554243 154 L 523.2690555554243 166 L 516.2690555554243 178 L 509.2690555554243 166 Z" fill="#f7fbff"/>
      <text x="772.6498708942411" y="171" class="value">11:20 ± 7:30</text>
    </g>
<g>
      <text x="172" y="244" text-anchor="end" class="hero">Fortunato</text>
      <line x1="480.3062402844552" y1="238" x2="854.9819773075995" y2="238" stroke="#72d8ff" stroke-width="10" stroke-linecap="round" opacity="0.55"/>
      <line x1="480.3062402844552" y1="227" x2="480.3062402844552" y2="249" stroke="#bdefff" stroke-width="2"/>
      <line x1="854.9819773075995" y1="227" x2="854.9819773075995" y2="249" stroke="#bdefff" stroke-width="2"/>
      <circle cx="667.6441087960275" cy="238" r="8" fill="#ffb34d" stroke="#fff0c7" stroke-width="2"/>
      <path d="M 743.5282499996621 226 L 750.5282499996621 238 L 743.5282499996621 250 L 736.5282499996621 238 Z" fill="#f7fbff"/>
      <text x="868.9819773075995" y="243" class="value">15:49 ± 6:12</text>
    </g>
<g>
      <text x="172" y="316" text-anchor="end" class="hero">Rutherford</text>
      <line x1="342.596712489987" y1="310" x2="705.1175976949104" y2="310" stroke="#72d8ff" stroke-width="10" stroke-linecap="round" opacity="0.55"/>
      <line x1="342.596712489987" y1="299" x2="342.596712489987" y2="321" stroke="#bdefff" stroke-width="2"/>
      <line x1="705.1175976949104" y1="299" x2="705.1175976949104" y2="321" stroke="#bdefff" stroke-width="2"/>
      <circle cx="523.8571550924487" cy="310" r="8" fill="#ffb34d" stroke="#fff0c7" stroke-width="2"/>
      <path d="M 512.4437222220944 298 L 519.4437222220944 310 L 512.4437222220944 322 L 505.4437222220944 310 Z" fill="#f7fbff"/>
      <text x="719.1175976949104" y="315" class="value">11:03 ± 6:00</text>
    </g>
</svg>
