<svg xmlns="http://www.w3.org/2000/svg" viewBox="0 0 1000 430" role="img" aria-labelledby="title desc">
  <title id="title">Mean survival time and standard deviation by hero</title>
  <desc id="desc">Orange circles show means, cyan bars show plus or minus one standard deviation, and white diamonds show medians.</desc>
  <style>
    text { font-family: ui-monospace, SFMono-Regular, Menlo, monospace; fill: #dce8ff; }
    .title { font-size: 24px; font-weight: 700; }
    .subtitle, .tick { font-size: 13px; fill: #91a4c8; }
    .hero { font-size: 17px; font-weight: 700; }
    .value { font-size: 13px; fill: #bdefff; }
  </style>
  <rect width="100%" height="100%" rx="18" fill="#081120"/>
  <text x="190" y="34" class="title">Survival time distribution</text>
  <text x="190" y="54" class="subtitle">mean ± 1 SD (cyan) · median (white) · competent policy</text>
  <line x1="190" y1="60" x2="190" y2="375" stroke="#263552" stroke-width="1"/>
<text x="190" y="402" text-anchor="middle" class="tick">0m</text>
<line x1="341" y1="60" x2="341" y2="375" stroke="#263552" stroke-width="1"/>
<text x="341" y="402" text-anchor="middle" class="tick">5m</text>
<line x1="492" y1="60" x2="492" y2="375" stroke="#263552" stroke-width="1"/>
<text x="492" y="402" text-anchor="middle" class="tick">10m</text>
<line x1="643" y1="60" x2="643" y2="375" stroke="#263552" stroke-width="1"/>
<text x="643" y="402" text-anchor="middle" class="tick">15m</text>
<line x1="794" y1="60" x2="794" y2="375" stroke="#263552" stroke-width="1"/>
<text x="794" y="402" text-anchor="middle" class="tick">20m</text>
<line x1="945" y1="60" x2="945" y2="375" stroke="#263552" stroke-width="1"/>
<text x="945" y="402" text-anchor="middle" class="tick">25m</text>
  <g>
      <text x="172" y="100" text-anchor="end" class="hero">Boswell</text>
      <line x1="397.25858945036225" y1="94" x2="767.8673086974024" y2="94" stroke="#72d8ff" stroke-width="10" stroke-linecap="round" opacity="0.55"/>
      <line x1="397.25858945036225" y1="83" x2="397.25858945036225" y2="105" stroke="#bdefff" stroke-width="2"/>
      <line x1="767.8673086974024" y1="83" x2="767.8673086974024" y2="105" stroke="#bdefff" stroke-width="2"/>
      <circle cx="582.5629490738825" cy="94" r="8" fill="#ffb34d" stroke="#fff0c7" stroke-width="2"/>
      <path d="M 547.555416666507 82 L 554.555416666507 94 L 547.555416666507 106 L 540.555416666507 94 Z" fill="#f7fbff"/>
      <text x="781.8673086974024" y="99" class="value">13:00 ± 6:08</text>
    </g>
<g>
      <text x="172" y="172" text-anchor="end" class="hero">Fitzwilliam</text>
      <line x1="256.6299834178422" y1="166" x2="632.4434471375466" y2="166" stroke="#72d8ff" stroke-width="10" stroke-linecap="round" opacity="0.55"/>
      <line x1="256.6299834178422" y1="155" x2="256.6299834178422" y2="177" stroke="#bdefff" stroke-width="2"/>
      <line x1="632.4434471375466" y1="155" x2="632.4434471375466" y2="177" stroke="#bdefff" stroke-width="2"/>
      <circle cx="444.5367152776944" cy="166" r="8" fill="#ffb34d" stroke="#fff0c7" stroke-width="2"/>
      <path d="M 361.95125000000905 154 L 368.95125000000905 166 L 361.95125000000905 178 L 354.95125000000905 166 Z" fill="#f7fbff"/>
      <text x="646.4434471375466" y="171" class="value">8:26 ± 6:13</text>
    </g>
<g>
      <text x="172" y="244" text-anchor="end" class="hero">Fortunato</text>
      <line x1="394.6263814998191" y1="238" x2="802.9777990553239" y2="238" stroke="#72d8ff" stroke-width="10" stroke-linecap="round" opacity="0.55"/>
      <line x1="394.6263814998191" y1="227" x2="394.6263814998191" y2="249" stroke="#bdefff" stroke-width="2"/>
      <line x1="802.9777990553239" y1="227" x2="802.9777990553239" y2="249" stroke="#bdefff" stroke-width="2"/>
      <circle cx="598.8020902775714" cy="238" r="8" fill="#ffb34d" stroke="#fff0c7" stroke-width="2"/>
      <path d="M 607.3556111108969 226 L 614.3556111108969 238 L 607.3556111108969 250 L 600.3556111108969 238 Z" fill="#f7fbff"/>
      <text x="816.9777990553239" y="243" class="value">13:32 ± 6:46</text>
    </g>
<g>
      <text x="172" y="316" text-anchor="end" class="hero">Rutherford</text>
      <line x1="343.68615680393157" y1="310" x2="648.9844589365796" y2="310" stroke="#72d8ff" stroke-width="10" stroke-linecap="round" opacity="0.55"/>
      <line x1="343.68615680393157" y1="299" x2="343.68615680393157" y2="321" stroke="#bdefff" stroke-width="2"/>
      <line x1="648.9844589365796" y1="299" x2="648.9844589365796" y2="321" stroke="#bdefff" stroke-width="2"/>
      <circle cx="496.3353078702555" cy="310" r="8" fill="#ffb34d" stroke="#fff0c7" stroke-width="2"/>
      <path d="M 480.6036944443456 298 L 487.6036944443456 310 L 480.6036944443456 322 L 473.6036944443456 310 Z" fill="#f7fbff"/>
      <text x="662.9844589365796" y="315" class="value">10:09 ± 5:03</text>
    </g>
</svg>
