<svg xmlns="http://www.w3.org/2000/svg" viewBox="0 0 1000 430" role="img" aria-labelledby="title desc">
  <title id="title">Mean survival time and standard deviation by hero</title>
  <desc id="desc">Orange circles show means, cyan bars show plus or minus one standard deviation, and white diamonds show medians.</desc>
  <style>
    text { font-family: ui-monospace, SFMono-Regular, Menlo, monospace; fill: #dce8ff; }
    .title { font-size: 24px; font-weight: 700; }
    .subtitle, .tick { font-size: 13px; fill: #91a4c8; }
    .hero { font-size: 17px; font-weight: 700; }
    .value { font-size: 13px; fill: #bdefff; }
  </style>
  <rect width="100%" height="100%" rx="18" fill="#081120"/>
  <text x="190" y="34" class="title">Survival time distribution</text>
  <text x="190" y="54" class="subtitle">mean ± 1 SD (cyan) · median (white) · competent policy</text>
  <line x1="190" y1="60" x2="190" y2="375" stroke="#263552" stroke-width="1"/>
<text x="190" y="402" text-anchor="middle" class="tick">0m</text>
<line x1="315.8333333333333" y1="60" x2="315.8333333333333" y2="375" stroke="#263552" stroke-width="1"/>
<text x="315.8333333333333" y="402" text-anchor="middle" class="tick">5m</text>
<line x1="441.66666666666663" y1="60" x2="441.66666666666663" y2="375" stroke="#263552" stroke-width="1"/>
<text x="441.66666666666663" y="402" text-anchor="middle" class="tick">10m</text>
<line x1="567.5" y1="60" x2="567.5" y2="375" stroke="#263552" stroke-width="1"/>
<text x="567.5" y="402" text-anchor="middle" class="tick">15m</text>
<line x1="693.3333333333333" y1="60" x2="693.3333333333333" y2="375" stroke="#263552" stroke-width="1"/>
<text x="693.3333333333333" y="402" text-anchor="middle" class="tick">20m</text>
<line x1="819.1666666666667" y1="60" x2="819.1666666666667" y2="375" stroke="#263552" stroke-width="1"/>
<text x="819.1666666666667" y="402" text-anchor="middle" class="tick">25m</text>
<line x1="945" y1="60" x2="945" y2="375" stroke="#263552" stroke-width="1"/>
<text x="945" y="402" text-anchor="middle" class="tick">30m</text>
  <g>
      <text x="172" y="100" text-anchor="end" class="hero">Boswell</text>
      <line x1="226.69659793354694" y1="94" x2="749.0589884859316" y2="94" stroke="#72d8ff" stroke-width="10" stroke-linecap="round" opacity="0.55"/>
      <line x1="226.69659793354694" y1="83" x2="226.69659793354694" y2="105" stroke="#bdefff" stroke-width="2"/>
      <line x1="749.0589884859316" y1="83" x2="749.0589884859316" y2="105" stroke="#bdefff" stroke-width="2"/>
      <circle cx="487.8777932097393" cy="94" r="8" fill="#ffb34d" stroke="#fff0c7" stroke-width="2"/>
      <path d="M 348.81914351851196 82 L 355.81914351851196 94 L 348.81914351851196 106 L 341.81914351851196 94 Z" fill="#f7fbff"/>
      <text x="763.0589884859316" y="99" class="value">11:50 ± 10:23</text>
    </g>
<g>
      <text x="172" y="172" text-anchor="end" class="hero">Fitzwilliam</text>
      <line x1="292.73457667053367" y1="166" x2="819.3124912303098" y2="166" stroke="#72d8ff" stroke-width="10" stroke-linecap="round" opacity="0.55"/>
      <line x1="292.73457667053367" y1="155" x2="292.73457667053367" y2="177" stroke="#bdefff" stroke-width="2"/>
      <line x1="819.3124912303098" y1="155" x2="819.3124912303098" y2="177" stroke="#bdefff" stroke-width="2"/>
      <circle cx="556.0235339504217" cy="166" r="8" fill="#ffb34d" stroke="#fff0c7" stroke-width="2"/>
      <path d="M 532.9028240739001 154 L 539.9028240739001 166 L 532.9028240739001 178 L 525.9028240739001 166 Z" fill="#f7fbff"/>
      <text x="833.3124912303098" y="171" class="value">14:33 ± 10:28</text>
    </g>
<g>
      <text x="172" y="244" text-anchor="end" class="hero">Fortunato</text>
      <line x1="285.2012986401063" y1="238" x2="738.9605069151391" y2="238" stroke="#72d8ff" stroke-width="10" stroke-linecap="round" opacity="0.55"/>
      <line x1="285.2012986401063" y1="227" x2="285.2012986401063" y2="249" stroke="#bdefff" stroke-width="2"/>
      <line x1="738.9605069151391" y1="227" x2="738.9605069151391" y2="249" stroke="#bdefff" stroke-width="2"/>
      <circle cx="512.0809027776227" cy="238" r="8" fill="#ffb34d" stroke="#fff0c7" stroke-width="2"/>
      <path d="M 426.27305555547855 226 L 433.27305555547855 238 L 426.27305555547855 250 L 419.27305555547855 238 Z" fill="#f7fbff"/>
      <text x="752.9605069151391" y="243" class="value">12:48 ± 9:01</text>
    </g>
<g>
      <text x="172" y="316" text-anchor="end" class="hero">Rutherford</text>
      <line x1="264.21275206068816" y1="310" x2="452.6640534948204" y2="310" stroke="#72d8ff" stroke-width="10" stroke-linecap="round" opacity="0.55"/>
      <line x1="264.21275206068816" y1="299" x2="264.21275206068816" y2="321" stroke="#bdefff" stroke-width="2"/>
      <line x1="452.6640534948204" y1="299" x2="452.6640534948204" y2="321" stroke="#bdefff" stroke-width="2"/>
      <circle cx="358.4384027777543" cy="310" r="8" fill="#ffb34d" stroke="#fff0c7" stroke-width="2"/>
      <path d="M 321.74050925927634 298 L 328.74050925927634 310 L 321.74050925927634 322 L 314.74050925927634 310 Z" fill="#f7fbff"/>
      <text x="466.6640534948204" y="315" class="value">6:42 ± 3:45</text>
    </g>
</svg>
